{"title":"Doctor Who The Day of the Doctor 2013 DVDrip English Klam","uid":11021975,"size":1491047453,"categoryP":"video","categoryS":"movies","magnet":"?xt=urn:btih:a5fe0fd750079591403b13c1f12278d56c2579fd&amp;dn=Doctor+Who+The+Day+of+the+Doctor+2013+DVDrip+English+Klam&amp;tr=udp%3A%2F%2Ftracker.openbittorrent.com%3A80&amp;tr=udp%3A%2F%2Fopen.demonii.com%3A1337&amp;tr=udp%3A%2F%2Ftracker.coppersurfer.tk%3A6969&amp;tr=udp%3A%2F%2Fexodus.desync.com%3A6969","seeders":2,"leechers":0,"uploader":"Klambake","files":-1,"time":1410605690,"description":" &lt;a href=&quot;http://i.imgur.com/bJa7f5j.gif&quot; rel=&quot;nofollow&quot; target=&quot;_NEW&quot;&gt;http://i.imgur.com/bJa7f5j.gif&lt;/a&gt;\n\nTer ere van BBC's verjaardag een &quot;special&quot; van de serie Doctor Who.\nDoor een oude veldslag in 1562 in Engeland staat er iets vreselijks te gebeuren in de Londense National Gallery.\n\n&quot;The Day of the Doctor&quot; is a special episode of the television programme Doctor Who, marking the programme's fiftieth anniversary. It was written by Steven Moffat, an executive producer alongside Faith Penhale. It was shown on BBC One on 23 November 2013, in both 2D and 3D. The special was broadcast simultaneously in 94 countries, and was shown concurrently in 3D in some cinemas. It achieved the Guinness World Record for the largest ever simulcast of a TV drama and won the Radio Times Audience Award at the 2014 British Academy Television Awards\n &lt;a href=&quot;\nhttp://www.imdb.com/title/tt0436992&quot; rel=&quot;nofollow&quot; target=&quot;_NEW&quot;&gt;\nhttp://www.imdb.com/title/tt0436992&lt;/a&gt;\t\n\n--------------------- Dutch Friends 4ever ---------------------\n---------------------------------------------------------------\n- Bezoek ook eens mijn vrienden op: &lt;a href=&quot; http://www.Film-Test.nl&quot; rel=&quot;nofollow&quot; target=&quot;_NEW&quot;&gt; http://www.Film-Test.nl&lt;/a&gt; --\n----- voor mijn Nederlandse Sync. ondertitels ---- en meer ----\n------- http://www.Film-Test.nl ---- Over Films en meer -------\n---------------------------------------------------------------\n\nGeneral:\n\nComplete name                            : Dr WhoThe Day of the Doctor.avi\nFormat                                   : AVI\nFormat/Info                              : Audio Video Interleave\nFile size                                : 1.39 GiB\nDuration                                 : 1h 19mn\nOverall bit rate                         : 2 488 Kbps\n\nVideo:\n\nFormat                                   : MPEG-4 Visual\nFormat profile                           : Simple@L3\nFormat settings, BVOP                    : No\nFormat settings, QPel                    : No\nFormat settings, GMC                     : No warppoints\nFormat settings, Matrix                  : Default (H.263)\nCodec ID                                 : XVID\nCodec ID/Hint                            : XviD\nDuration                                 : 1h 19mn\nSource duration                          : 1h 19mn\nBit rate                                 : 2 029 Kbps\nWidth                                    : 652 pixels\nHeight                                   : 352 pixels\nDisplay aspect ratio                     : 1.85:1\nFrame rate                               : 25.000 fps\nColor space                              : YUV\nChroma subsampling                       : 4:2:0\nBit depth                                : 8 bits\nScan type                                : Progressive\nCompression mode                         : Lossy\nBits/(Pixel*Frame)                       : 0.354\nStream size                              : 1.13 GiB (82%)\nWriting library                          : XviD 1.1.2 (UTC 2006-11-01)\n\nAudio:\n\nFormat                                   : AC-3\nFormat/Info                              : Audio Coding 3\nMode extension                           : CM (complete main)\nFormat settings, Endianness              : Big\nCodec ID                                 : 2000\nDuration                                 : 1h 19mn\nBit rate mode                            : Constant\nBit rate                                 : 448 Kbps\nChannel(s)                               : 6 channels\nChannel positions                        : Front: L C R, Side: L R, LFE\nSampling rate                            : 48.0 KHz\nBit depth                                : 16 bits\nCompression mode                         : Lossy\nStream size                              : 256 MiB (18%)\nAlignment                                : Aligned on interleaves\nInterleave, duration                     : 32 ms (0.80 video frame)\n\n\n","torrent":{"xt":"urn:btih:a5fe0fd750079591403b13c1f12278d56c2579fd","amp;dn":"Doctor+Who+The+Day+of+the+Doctor+2013+DVDrip+English+Klam","amp;tr":["udp%3A%2F%2Ftracker.openbittorrent.com%3A80","udp%3A%2F%2Fopen.demonii.com%3A1337","udp%3A%2F%2Ftracker.coppersurfer.tk%3A6969","udp%3A%2F%2Fexodus.desync.com%3A6969"],"infoHash":"a5fe0fd750079591403b13c1f12278d56c2579fd","infoHashBuffer":{"type":"Buffer","data":[165,254,15,215,80,7,149,145,64,59,19,193,241,34,120,213,108,37,121,253]},"announce":[],"urlList":[]}}